<?xml version="1.0" encoding="utf-8"?>
<!-- Generator: Adobe Illustrator 26.0.2, SVG Export Plug-In . SVG Version: 6.00 Build 0)  -->
<svg version="1.1" id="Warstwa_1" xmlns="http://www.w3.org/2000/svg" xmlns:xlink="http://www.w3.org/1999/xlink" x="0px" y="0px"
	 viewBox="0 0 21.4 22.6" style="enable-background:new 0 0 21.4 22.6;" xml:space="preserve">
<style type="text/css">
	.st0{fill:#00A5EF;}
	.st1{fill:#333333;}
</style>
<path class="st0" d="M21.4,0l-21,22.5c-0.2,0.3-0.7-0.1-0.4-0.4L15.2,0.8c0.4-0.5,1-0.8,1.6-0.8H21.4z"/>
<path class="st1" d="M13.7,11.3l6.1,8.4h-4c-0.6,0-1.2-0.2-1.6-0.7l-0.1-0.1l-2.2-3.1c-0.5-0.8-0.5-1.7,0-2.5l0.1-0.2L13.7,11.3z"/>
<path class="st1" d="M5.7,1.6c0.7,0,1.2,0.2,1.6,0.7l0.1,0.1l1.2,1.6C9,4.8,9,5.7,8.6,6.4L8.5,6.5L6.9,8.8L1.6,1.6L5.7,1.6z"/>
</svg>
